<mxfile host="app.diagrams.net" modified="2023-03-18T23:31:15.094Z" agent="5.0 (Windows NT 10.0; Win64; x64) AppleWebKit/537.36 (KHTML, like Gecko) Chrome/111.0.0.0 Safari/537.36" etag="8PcrKHrc5dmIgpyPsSy6" version="21.0.8" type="github">
  <diagram id="C5RBs43oDa-KdzZeNtuy" name="Page-1">
    <mxGraphModel dx="1434" dy="756" grid="1" gridSize="10" guides="1" tooltips="1" connect="1" arrows="1" fold="1" page="1" pageScale="1" pageWidth="827" pageHeight="1169" math="0" shadow="0">
      <root>
        <mxCell id="WIyWlLk6GJQsqaUBKTNV-0" />
        <mxCell id="WIyWlLk6GJQsqaUBKTNV-1" parent="WIyWlLk6GJQsqaUBKTNV-0" />
        <mxCell id="rxbA8oqwe8ahJq8Qh0FR-11" style="edgeStyle=orthogonalEdgeStyle;rounded=0;orthogonalLoop=1;jettySize=auto;html=1;entryX=0.5;entryY=0;entryDx=0;entryDy=0;" parent="WIyWlLk6GJQsqaUBKTNV-1" source="WIyWlLk6GJQsqaUBKTNV-3" target="rxbA8oqwe8ahJq8Qh0FR-8" edge="1">
          <mxGeometry relative="1" as="geometry">
            <Array as="points">
              <mxPoint x="310" y="300" />
              <mxPoint x="515" y="300" />
            </Array>
          </mxGeometry>
        </mxCell>
        <mxCell id="Qd1Z7RHTw6pURVh9gfv0-9" style="edgeStyle=orthogonalEdgeStyle;rounded=0;orthogonalLoop=1;jettySize=auto;html=1;entryX=0.5;entryY=0;entryDx=0;entryDy=0;" edge="1" parent="WIyWlLk6GJQsqaUBKTNV-1" source="WIyWlLk6GJQsqaUBKTNV-3" target="Qd1Z7RHTw6pURVh9gfv0-0">
          <mxGeometry relative="1" as="geometry">
            <Array as="points">
              <mxPoint x="310" y="300" />
              <mxPoint x="244" y="300" />
            </Array>
          </mxGeometry>
        </mxCell>
        <mxCell id="Qd1Z7RHTw6pURVh9gfv0-13" style="edgeStyle=orthogonalEdgeStyle;rounded=0;orthogonalLoop=1;jettySize=auto;html=1;entryX=0.5;entryY=0;entryDx=0;entryDy=0;" edge="1" parent="WIyWlLk6GJQsqaUBKTNV-1" source="WIyWlLk6GJQsqaUBKTNV-3" target="rxbA8oqwe8ahJq8Qh0FR-5">
          <mxGeometry relative="1" as="geometry">
            <mxPoint x="95" y="420" as="targetPoint" />
            <Array as="points">
              <mxPoint x="310" y="300" />
              <mxPoint x="95" y="300" />
            </Array>
          </mxGeometry>
        </mxCell>
        <mxCell id="Qd1Z7RHTw6pURVh9gfv0-21" style="edgeStyle=orthogonalEdgeStyle;rounded=0;orthogonalLoop=1;jettySize=auto;html=1;entryX=0.005;entryY=0.07;entryDx=0;entryDy=0;entryPerimeter=0;" edge="1" parent="WIyWlLk6GJQsqaUBKTNV-1" source="WIyWlLk6GJQsqaUBKTNV-3" target="Qd1Z7RHTw6pURVh9gfv0-19">
          <mxGeometry relative="1" as="geometry" />
        </mxCell>
        <mxCell id="Qd1Z7RHTw6pURVh9gfv0-33" style="edgeStyle=orthogonalEdgeStyle;rounded=0;orthogonalLoop=1;jettySize=auto;html=1;entryX=0.5;entryY=0;entryDx=0;entryDy=0;" edge="1" parent="WIyWlLk6GJQsqaUBKTNV-1" source="WIyWlLk6GJQsqaUBKTNV-3" target="Qd1Z7RHTw6pURVh9gfv0-30">
          <mxGeometry relative="1" as="geometry">
            <Array as="points">
              <mxPoint x="310" y="300" />
              <mxPoint x="385" y="300" />
            </Array>
          </mxGeometry>
        </mxCell>
        <mxCell id="WIyWlLk6GJQsqaUBKTNV-3" value="Arduino&lt;br&gt;" style="rounded=1;whiteSpace=wrap;html=1;fontSize=12;glass=0;strokeWidth=1;shadow=0;" parent="WIyWlLk6GJQsqaUBKTNV-1" vertex="1">
          <mxGeometry x="250" y="220" width="120" height="40" as="geometry" />
        </mxCell>
        <mxCell id="Qd1Z7RHTw6pURVh9gfv0-3" style="edgeStyle=orthogonalEdgeStyle;rounded=0;orthogonalLoop=1;jettySize=auto;html=1;entryX=0.5;entryY=0;entryDx=0;entryDy=0;" edge="1" parent="WIyWlLk6GJQsqaUBKTNV-1" source="rxbA8oqwe8ahJq8Qh0FR-1" target="WIyWlLk6GJQsqaUBKTNV-3">
          <mxGeometry relative="1" as="geometry" />
        </mxCell>
        <mxCell id="Qd1Z7RHTw6pURVh9gfv0-4" style="edgeStyle=orthogonalEdgeStyle;rounded=0;orthogonalLoop=1;jettySize=auto;html=1;entryX=0.5;entryY=0;entryDx=0;entryDy=0;" edge="1" parent="WIyWlLk6GJQsqaUBKTNV-1" source="rxbA8oqwe8ahJq8Qh0FR-1" target="rxbA8oqwe8ahJq8Qh0FR-2">
          <mxGeometry relative="1" as="geometry" />
        </mxCell>
        <mxCell id="rxbA8oqwe8ahJq8Qh0FR-1" value="Tranformador&lt;br&gt;12V" style="rhombus;whiteSpace=wrap;html=1;" parent="WIyWlLk6GJQsqaUBKTNV-1" vertex="1">
          <mxGeometry x="245" y="120" width="130" height="60" as="geometry" />
        </mxCell>
        <mxCell id="Qd1Z7RHTw6pURVh9gfv0-6" style="edgeStyle=orthogonalEdgeStyle;rounded=0;orthogonalLoop=1;jettySize=auto;html=1;entryX=1;entryY=0.5;entryDx=0;entryDy=0;" edge="1" parent="WIyWlLk6GJQsqaUBKTNV-1" source="rxbA8oqwe8ahJq8Qh0FR-2" target="rxbA8oqwe8ahJq8Qh0FR-8">
          <mxGeometry relative="1" as="geometry">
            <Array as="points">
              <mxPoint x="600" y="400" />
              <mxPoint x="600" y="335" />
            </Array>
          </mxGeometry>
        </mxCell>
        <mxCell id="Qd1Z7RHTw6pURVh9gfv0-8" style="edgeStyle=orthogonalEdgeStyle;rounded=0;orthogonalLoop=1;jettySize=auto;html=1;" edge="1" parent="WIyWlLk6GJQsqaUBKTNV-1" source="rxbA8oqwe8ahJq8Qh0FR-2" target="Qd1Z7RHTw6pURVh9gfv0-0">
          <mxGeometry relative="1" as="geometry" />
        </mxCell>
        <mxCell id="Qd1Z7RHTw6pURVh9gfv0-14" style="edgeStyle=orthogonalEdgeStyle;rounded=0;orthogonalLoop=1;jettySize=auto;html=1;entryX=0.5;entryY=0;entryDx=0;entryDy=0;" edge="1" parent="WIyWlLk6GJQsqaUBKTNV-1" source="rxbA8oqwe8ahJq8Qh0FR-2" target="rxbA8oqwe8ahJq8Qh0FR-5">
          <mxGeometry relative="1" as="geometry">
            <mxPoint x="155" y="445" as="targetPoint" />
            <Array as="points">
              <mxPoint x="600" y="400" />
              <mxPoint x="600" y="445" />
              <mxPoint x="100" y="445" />
              <mxPoint x="100" y="500" />
            </Array>
          </mxGeometry>
        </mxCell>
        <mxCell id="Qd1Z7RHTw6pURVh9gfv0-31" style="edgeStyle=orthogonalEdgeStyle;rounded=0;orthogonalLoop=1;jettySize=auto;html=1;entryX=1;entryY=0.5;entryDx=0;entryDy=0;" edge="1" parent="WIyWlLk6GJQsqaUBKTNV-1" source="rxbA8oqwe8ahJq8Qh0FR-2" target="Qd1Z7RHTw6pURVh9gfv0-30">
          <mxGeometry relative="1" as="geometry">
            <Array as="points">
              <mxPoint x="600" y="400" />
              <mxPoint x="600" y="370" />
            </Array>
          </mxGeometry>
        </mxCell>
        <mxCell id="rxbA8oqwe8ahJq8Qh0FR-2" value="BoostDown&lt;br&gt;Converter 12 to 6V" style="shape=process;whiteSpace=wrap;html=1;backgroundOutline=1;rotation=0;" parent="WIyWlLk6GJQsqaUBKTNV-1" vertex="1">
          <mxGeometry x="630" y="370" width="120" height="60" as="geometry" />
        </mxCell>
        <mxCell id="rxbA8oqwe8ahJq8Qh0FR-5" value="Servos - 3" style="ellipse;whiteSpace=wrap;html=1;" parent="WIyWlLk6GJQsqaUBKTNV-1" vertex="1">
          <mxGeometry x="50" y="500" width="90" height="60" as="geometry" />
        </mxCell>
        <mxCell id="rxbA8oqwe8ahJq8Qh0FR-6" value="DC motors - 2&lt;br&gt;(fita)" style="ellipse;whiteSpace=wrap;html=1;" parent="WIyWlLk6GJQsqaUBKTNV-1" vertex="1">
          <mxGeometry x="199" y="500" width="90" height="60" as="geometry" />
        </mxCell>
        <mxCell id="rxbA8oqwe8ahJq8Qh0FR-7" value="DC motors - 1&lt;br&gt;(apagador)" style="ellipse;whiteSpace=wrap;html=1;" parent="WIyWlLk6GJQsqaUBKTNV-1" vertex="1">
          <mxGeometry x="470" y="500" width="90" height="60" as="geometry" />
        </mxCell>
        <mxCell id="rxbA8oqwe8ahJq8Qh0FR-10" style="edgeStyle=orthogonalEdgeStyle;rounded=0;orthogonalLoop=1;jettySize=auto;html=1;entryX=0.5;entryY=0;entryDx=0;entryDy=0;" parent="WIyWlLk6GJQsqaUBKTNV-1" source="rxbA8oqwe8ahJq8Qh0FR-8" target="rxbA8oqwe8ahJq8Qh0FR-7" edge="1">
          <mxGeometry relative="1" as="geometry" />
        </mxCell>
        <mxCell id="rxbA8oqwe8ahJq8Qh0FR-8" value="Relé" style="rounded=0;whiteSpace=wrap;html=1;" parent="WIyWlLk6GJQsqaUBKTNV-1" vertex="1">
          <mxGeometry x="480" y="320" width="70" height="30" as="geometry" />
        </mxCell>
        <mxCell id="Qd1Z7RHTw6pURVh9gfv0-2" style="edgeStyle=orthogonalEdgeStyle;rounded=0;orthogonalLoop=1;jettySize=auto;html=1;entryX=0.5;entryY=0;entryDx=0;entryDy=0;" edge="1" parent="WIyWlLk6GJQsqaUBKTNV-1" source="Qd1Z7RHTw6pURVh9gfv0-0" target="rxbA8oqwe8ahJq8Qh0FR-6">
          <mxGeometry relative="1" as="geometry" />
        </mxCell>
        <mxCell id="Qd1Z7RHTw6pURVh9gfv0-0" value="DC motor driver&lt;br&gt;L298N /L293N&amp;nbsp;" style="shape=hexagon;perimeter=hexagonPerimeter2;whiteSpace=wrap;html=1;fixedSize=1;" vertex="1" parent="WIyWlLk6GJQsqaUBKTNV-1">
          <mxGeometry x="189" y="380" width="110" height="40" as="geometry" />
        </mxCell>
        <mxCell id="Qd1Z7RHTw6pURVh9gfv0-19" value="LCD &amp;amp; MORE" style="swimlane;whiteSpace=wrap;html=1;startSize=30;" vertex="1" parent="WIyWlLk6GJQsqaUBKTNV-1">
          <mxGeometry x="890" y="200" width="200" height="320" as="geometry">
            <mxRectangle x="810" y="200" width="140" height="30" as="alternateBounds" />
          </mxGeometry>
        </mxCell>
        <mxCell id="Qd1Z7RHTw6pURVh9gfv0-17" value="LCD &amp;amp; Buttons SHIELD" style="shape=internalStorage;whiteSpace=wrap;html=1;backgroundOutline=1;dx=0;dy=10;" vertex="1" parent="Qd1Z7RHTw6pURVh9gfv0-19">
          <mxGeometry y="30" width="200" height="40" as="geometry" />
        </mxCell>
        <mxCell id="Qd1Z7RHTw6pURVh9gfv0-24" value="SD reader/writer" style="rounded=0;whiteSpace=wrap;html=1;" vertex="1" parent="Qd1Z7RHTw6pURVh9gfv0-19">
          <mxGeometry y="100" width="200" height="30" as="geometry" />
        </mxCell>
        <mxCell id="Qd1Z7RHTw6pURVh9gfv0-23" value="Encoder rotativo" style="rounded=0;whiteSpace=wrap;html=1;" vertex="1" parent="Qd1Z7RHTw6pURVh9gfv0-19">
          <mxGeometry y="70" width="200" height="30" as="geometry" />
        </mxCell>
        <mxCell id="Qd1Z7RHTw6pURVh9gfv0-25" value="Fotoresistências x2" style="rounded=0;whiteSpace=wrap;html=1;" vertex="1" parent="Qd1Z7RHTw6pURVh9gfv0-19">
          <mxGeometry y="130" width="200" height="30" as="geometry" />
        </mxCell>
        <mxCell id="Qd1Z7RHTw6pURVh9gfv0-26" value="resistências 230 / 10k" style="rounded=0;whiteSpace=wrap;html=1;" vertex="1" parent="Qd1Z7RHTw6pURVh9gfv0-19">
          <mxGeometry y="160" width="200" height="30" as="geometry" />
        </mxCell>
        <mxCell id="Qd1Z7RHTw6pURVh9gfv0-27" value="white LED x2" style="rounded=0;whiteSpace=wrap;html=1;" vertex="1" parent="Qd1Z7RHTw6pURVh9gfv0-19">
          <mxGeometry y="190" width="200" height="30" as="geometry" />
        </mxCell>
        <mxCell id="Qd1Z7RHTw6pURVh9gfv0-28" value="LED e sensor IR ? x2" style="rounded=0;whiteSpace=wrap;html=1;" vertex="1" parent="Qd1Z7RHTw6pURVh9gfv0-19">
          <mxGeometry y="220" width="200" height="30" as="geometry" />
        </mxCell>
        <mxCell id="Qd1Z7RHTw6pURVh9gfv0-41" value="7-Segment Display x3?" style="rounded=0;whiteSpace=wrap;html=1;" vertex="1" parent="Qd1Z7RHTw6pURVh9gfv0-19">
          <mxGeometry y="250" width="200" height="30" as="geometry" />
        </mxCell>
        <mxCell id="Qd1Z7RHTw6pURVh9gfv0-29" value="STEPPER motor" style="ellipse;whiteSpace=wrap;html=1;" vertex="1" parent="WIyWlLk6GJQsqaUBKTNV-1">
          <mxGeometry x="340" y="500" width="90" height="60" as="geometry" />
        </mxCell>
        <mxCell id="Qd1Z7RHTw6pURVh9gfv0-32" style="edgeStyle=orthogonalEdgeStyle;rounded=0;orthogonalLoop=1;jettySize=auto;html=1;entryX=0.5;entryY=0;entryDx=0;entryDy=0;" edge="1" parent="WIyWlLk6GJQsqaUBKTNV-1" source="Qd1Z7RHTw6pURVh9gfv0-30" target="Qd1Z7RHTw6pURVh9gfv0-29">
          <mxGeometry relative="1" as="geometry" />
        </mxCell>
        <mxCell id="Qd1Z7RHTw6pURVh9gfv0-30" value="STEPPER motor&lt;br&gt;driver" style="shape=hexagon;perimeter=hexagonPerimeter2;whiteSpace=wrap;html=1;fixedSize=1;" vertex="1" parent="WIyWlLk6GJQsqaUBKTNV-1">
          <mxGeometry x="325" y="350" width="120" height="40" as="geometry" />
        </mxCell>
        <mxCell id="Qd1Z7RHTw6pURVh9gfv0-35" style="edgeStyle=orthogonalEdgeStyle;rounded=0;orthogonalLoop=1;jettySize=auto;html=1;" edge="1" parent="WIyWlLk6GJQsqaUBKTNV-1" source="Qd1Z7RHTw6pURVh9gfv0-34">
          <mxGeometry relative="1" as="geometry">
            <mxPoint x="770" y="390" as="targetPoint" />
            <Array as="points">
              <mxPoint x="790" y="390" />
            </Array>
          </mxGeometry>
        </mxCell>
        <mxCell id="Qd1Z7RHTw6pURVh9gfv0-34" value="Todos os motores exceto os servos poderiam correr em 12v (mas na pior das hipóteses faz se assim como está)" style="rounded=0;whiteSpace=wrap;html=1;" vertex="1" parent="WIyWlLk6GJQsqaUBKTNV-1">
          <mxGeometry x="700" y="480" width="180" height="100" as="geometry" />
        </mxCell>
        <mxCell id="Qd1Z7RHTw6pURVh9gfv0-36" value="&lt;br&gt;&lt;div style=&quot;text-align: start;&quot;&gt;&lt;font face=&quot;Söhne, ui-sans-serif, system-ui, -apple-system, Segoe UI, Roboto, Ubuntu, Cantarell, Noto Sans, sans-serif, Helvetica Neue, Arial, Apple Color Emoji, Segoe UI Emoji, Segoe UI Symbol, Noto Color Emoji&quot; color=&quot;#374151&quot;&gt;PCA9685 like&amp;nbsp;&lt;/font&gt;&lt;/div&gt;&lt;div style=&quot;text-align: start;&quot;&gt;&lt;font face=&quot;Söhne, ui-sans-serif, system-ui, -apple-system, Segoe UI, Roboto, Ubuntu, Cantarell, Noto Sans, sans-serif, Helvetica Neue, Arial, Apple Color Emoji, Segoe UI Emoji, Segoe UI Symbol, Noto Color Emoji&quot; color=&quot;#374151&quot;&gt;servo&amp;nbsp;&lt;/font&gt;&lt;span style=&quot;color: rgb(55, 65, 81); font-family: Söhne, ui-sans-serif, system-ui, -apple-system, &amp;quot;Segoe UI&amp;quot;, Roboto, Ubuntu, Cantarell, &amp;quot;Noto Sans&amp;quot;, sans-serif, &amp;quot;Helvetica Neue&amp;quot;, Arial, &amp;quot;Apple Color Emoji&amp;quot;, &amp;quot;Segoe UI Emoji&amp;quot;, &amp;quot;Segoe UI Symbol&amp;quot;, &amp;quot;Noto Color Emoji&amp;quot;; background-color: initial;&quot;&gt;controller&lt;/span&gt;&lt;/div&gt;&lt;div style=&quot;text-align: start;&quot;&gt;&lt;font face=&quot;Söhne, ui-sans-serif, system-ui, -apple-system, Segoe UI, Roboto, Ubuntu, Cantarell, Noto Sans, sans-serif, Helvetica Neue, Arial, Apple Color Emoji, Segoe UI Emoji, Segoe UI Symbol, Noto Color Emoji&quot; color=&quot;#374151&quot;&gt;(utilizar&amp;nbsp;o power doutro&amp;nbsp;&lt;/font&gt;&lt;/div&gt;&lt;div style=&quot;text-align: start;&quot;&gt;&lt;font face=&quot;Söhne, ui-sans-serif, system-ui, -apple-system, Segoe UI, Roboto, Ubuntu, Cantarell, Noto Sans, sans-serif, Helvetica Neue, Arial, Apple Color Emoji, Segoe UI Emoji, Segoe UI Symbol, Noto Color Emoji&quot; color=&quot;#374151&quot;&gt;sitio e o signal do arduino)&lt;/font&gt;&lt;/div&gt;" style="shape=hexagon;perimeter=hexagonPerimeter2;whiteSpace=wrap;html=1;fixedSize=1;" vertex="1" parent="WIyWlLk6GJQsqaUBKTNV-1">
          <mxGeometry x="9" y="610" width="180" height="100" as="geometry" />
        </mxCell>
        <mxCell id="Qd1Z7RHTw6pURVh9gfv0-40" value="mete se a 6v para os servos" style="rounded=0;whiteSpace=wrap;html=1;" vertex="1" parent="WIyWlLk6GJQsqaUBKTNV-1">
          <mxGeometry x="800" y="450" width="90" height="30" as="geometry" />
        </mxCell>
      </root>
    </mxGraphModel>
  </diagram>
</mxfile>
